<svg width="60" height="61" viewBox="0 0 60 61" fill="none" xmlns="http://www.w3.org/2000/svg">
<path fill-rule="evenodd" clip-rule="evenodd" d="M35.0734 2.49998C33.8951 2.49998 32.94 3.45515 32.94 4.63329C32.94 5.81144 33.8951 6.76661 35.0734 6.76661C36.2518 6.76661 37.2069 5.81144 37.2069 4.63329C37.2069 3.45515 36.2518 2.49998 35.0734 2.49998ZM30.44 4.63329C30.44 2.07434 32.5145 0 35.0734 0C37.6324 0 39.7069 2.07434 39.7069 4.63329C39.7069 7.19225 37.6324 9.26659 35.0734 9.26659C32.5145 9.26659 30.44 7.19225 30.44 4.63329ZM8.01402 16.0286C6.83569 16.0286 5.88056 16.9837 5.88056 18.1619C5.88056 19.34 6.83569 20.2952 8.01402 20.2952C9.19235 20.2952 10.1475 19.34 10.1475 18.1619C10.1475 16.9837 9.19235 16.0286 8.01402 16.0286ZM3.38058 18.1619C3.38058 15.6029 5.45509 13.5286 8.01402 13.5286C10.5729 13.5286 12.6475 15.6029 12.6475 18.1619C12.6475 20.7208 10.573 22.7952 8.01402 22.7952C5.45509 22.7952 3.38058 20.7208 3.38058 18.1619ZM32.9401 38.4546C32.9401 37.2764 33.8952 36.3212 35.0735 36.3212C36.2519 36.3212 37.207 37.2764 37.207 38.4546C37.207 39.6327 36.2519 40.5879 35.0735 40.5879C33.8952 40.5879 32.9401 39.6327 32.9401 38.4546ZM35.0735 33.8213C32.5146 33.8213 30.4401 35.8956 30.4401 38.4546C30.4401 41.0135 32.5146 43.0878 35.0735 43.0878C37.6325 43.0878 39.707 41.0135 39.707 38.4546C39.707 35.8956 37.6325 33.8213 35.0735 33.8213ZM24.925 53.2345C23.7467 53.2345 22.7916 54.1897 22.7916 55.3678C22.7916 56.546 23.7467 57.5011 24.925 57.5011C26.1034 57.5011 27.0585 56.546 27.0585 55.3678C27.0585 54.1897 26.1034 53.2345 24.925 53.2345ZM20.2916 55.3678C20.2916 52.8089 22.3661 50.7345 24.925 50.7345C27.484 50.7345 29.5585 52.8089 29.5585 55.3678C29.5585 57.9268 27.484 60.0011 24.925 60.0011C22.3661 60.0011 20.2916 57.9268 20.2916 55.3678ZM26.3771 4.09787C26.9518 4.48037 27.1076 5.25633 26.7251 5.83103C25.896 7.07664 24.8373 7.34735 24.1353 7.52684L24.1087 7.53364C23.4875 7.69263 23.2398 7.76958 22.9537 8.19948C22.6667 8.63061 22.6911 8.89079 22.7828 9.52702L22.7865 9.55311C22.8902 10.2713 23.0463 11.3528 22.2157 12.5976C21.3853 13.8422 20.3265 14.1127 19.6243 14.2922L19.5975 14.299C18.976 14.458 18.7284 14.535 18.4423 14.9648C18.0598 15.5395 17.2838 15.6953 16.7091 15.3128C16.1344 14.9303 15.9786 14.1544 16.3611 13.5797C17.1903 12.3339 18.2492 12.0633 18.9516 11.8838L18.978 11.877C19.5997 11.718 19.8487 11.6408 20.1362 11.21C20.424 10.7787 20.3999 10.5185 20.3084 9.8837L20.3043 9.85528C20.2008 9.13842 20.0447 8.05799 20.8725 6.81432C21.7015 5.56871 22.7603 5.298 23.4623 5.11852L23.4889 5.11171C24.1101 4.95273 24.3578 4.87577 24.6439 4.44587C25.0264 3.87117 25.8024 3.71537 26.3771 4.09787ZM41.435 25.6583C41.8858 25.1355 42.6751 25.0772 43.1979 25.5281C43.7222 25.9803 44.0585 26.461 44.2741 26.9653C44.4695 27.4223 44.5477 27.8653 44.6015 28.1698L44.6081 28.2067C44.6679 28.5441 44.7057 28.7285 44.7804 28.9026C44.8435 29.0493 44.9507 29.2254 45.1994 29.4407C45.4473 29.6551 45.6352 29.7343 45.7872 29.7744C45.9684 29.8221 46.1549 29.832 46.4975 29.8406L46.5357 29.8415C46.8447 29.8491 47.2951 29.8601 47.7767 29.9853C48.3088 30.1238 48.8352 30.3859 49.3609 30.8394C49.8865 31.2928 50.2232 31.7753 50.4387 32.2811C50.6341 32.7395 50.7121 33.184 50.7657 33.4896L50.7722 33.5264C50.8319 33.8653 50.8695 34.0498 50.9439 34.2231C51.0063 34.3686 51.1123 34.5426 51.3593 34.7549C51.8827 35.205 51.9423 35.9942 51.4922 36.5177C51.0421 37.0412 50.2529 37.1007 49.7294 36.6506C49.2021 36.1973 48.8635 35.7149 48.6464 35.2087C48.4483 34.7471 48.3699 34.3003 48.3159 33.9929L48.3101 33.9601C48.2501 33.6194 48.2129 33.4349 48.1389 33.2612C48.077 33.1159 47.9722 32.9431 47.7279 32.7323C47.4835 32.5215 47.2982 32.444 47.1473 32.4048C46.9662 32.3577 46.7801 32.3484 46.4348 32.3398L46.4024 32.339C46.0908 32.3313 45.637 32.3201 45.1502 32.1918C44.6171 32.0514 44.0901 31.7867 43.5636 31.3312C43.0381 30.8764 42.7003 30.3944 42.4834 29.8893C42.2852 29.4279 42.2064 28.9822 42.1522 28.6754L42.1465 28.6432C42.0862 28.3035 42.0491 28.1205 41.9754 27.948C41.9138 27.804 41.8094 27.6319 41.5652 27.4213C41.0424 26.9704 40.9841 26.1811 41.435 25.6583ZM5.98959 47.0268C5.46686 46.5758 4.67755 46.634 4.22662 47.1568C3.77568 47.6795 3.83387 48.4688 4.3566 48.9197C4.60094 49.1305 4.70573 49.3034 4.76763 49.4486C4.84169 49.6223 4.87885 49.8067 4.93887 50.147L4.94462 50.1797C4.99861 50.4867 5.07716 50.9335 5.27553 51.3947C5.4931 51.9006 5.83234 52.3822 6.36019 52.8341C7.46945 53.7836 8.49499 53.8126 9.20552 53.8327L9.22226 53.8332C9.56552 53.843 9.75242 53.8532 9.93381 53.9012C10.0859 53.9415 10.2727 54.0205 10.5184 54.2329C10.7632 54.4445 10.8683 54.618 10.9303 54.7636C11.0045 54.9377 11.0417 55.1222 11.1017 55.4625L11.1074 55.4951C11.1614 55.8022 11.24 56.2488 11.4382 56.7101C11.6557 57.216 11.9946 57.6976 12.522 58.1501C13.046 58.5996 13.8351 58.5392 14.2846 58.0152C14.7341 57.4913 14.6737 56.7021 14.1498 56.2526C13.9029 56.0408 13.7972 55.8675 13.7351 55.7229C13.6609 55.5505 13.6234 55.3668 13.5637 55.0283L13.5572 54.9914C13.5036 54.6861 13.4255 54.242 13.2303 53.7837C13.0149 53.2783 12.6786 52.7957 12.1534 52.3417C11.6291 51.8884 11.1041 51.6249 10.5733 51.4844C10.0895 51.3564 9.63775 51.3438 9.3269 51.3352L9.29315 51.3342C8.69499 51.3173 8.41652 51.3035 7.98596 50.9349C7.73953 50.7239 7.63414 50.5512 7.57215 50.4071C7.49812 50.2349 7.46057 50.0514 7.40087 49.7129L7.39436 49.6759C7.34074 49.3707 7.2627 48.9264 7.06738 48.4683C6.85187 47.9627 6.51523 47.4802 5.98959 47.0268ZM57.4449 26.8033C57.1381 23.1802 55.5615 19.7649 52.9707 17.1742C50.3798 14.5834 46.9643 13.0069 43.341 12.7001C43.4751 14.2836 43.8528 15.8396 44.463 17.3126C45.2401 19.1887 46.3792 20.8934 47.8152 22.3293C49.2511 23.7652 50.9559 24.9042 52.8321 25.6813C54.3052 26.2915 55.8613 26.6691 57.4449 26.8033ZM42.0358 11.395H40.7859C40.7859 13.754 41.2505 16.0899 42.1533 18.2693C43.0561 20.4488 44.3793 22.429 46.0475 24.0971C47.7156 25.7651 49.6959 27.0883 51.8754 27.991C54.0549 28.8938 56.3909 29.3584 58.75 29.3584V28.1084H60C60 23.3442 58.1073 18.7752 54.7384 15.4064C51.3695 12.0376 46.8002 10.145 42.0358 10.145V11.395ZM24.1385 20.5577C26.7293 17.9669 30.1449 16.3904 33.7682 16.0837C33.4614 19.7067 31.8848 23.1221 29.294 25.7128C26.7031 28.3036 23.2876 29.8801 19.6643 30.1868C19.971 26.5638 21.5476 23.1484 24.1385 20.5577ZM18.3591 32.7419V31.492H17.1092C17.1092 26.7277 19.0018 22.1587 22.3708 18.7899C25.7397 15.4211 30.3089 13.5286 35.0733 13.5286V14.7785H36.3233C36.3233 19.5428 34.4306 24.1118 31.0617 27.4806C27.6928 30.8494 23.1235 32.7419 18.3591 32.7419ZM1.24999 27.2646C0.55964 27.2646 0 27.8243 0 28.5146C0 33.2788 1.89266 37.8479 5.2616 41.2167C8.63054 44.5855 13.1998 46.478 17.9642 46.478V45.228H19.2142C19.2142 40.4638 17.3215 35.8948 13.9526 32.526C10.5836 29.1572 6.01436 27.2646 1.24999 27.2646ZM7.02931 39.4489C4.43846 36.8582 2.86188 33.4428 2.55512 29.8197C6.1784 30.1265 9.59396 31.703 12.1848 34.2938C14.7757 36.8845 16.3523 40.2999 16.659 43.9229C13.0358 43.6162 9.62019 42.0396 7.02931 39.4489ZM55.1668 40.7867V42.0367H56.4168C56.4168 44.3957 55.9521 46.7315 55.0494 48.911C54.1466 51.0904 52.8233 53.0707 51.1552 54.7387C49.4871 56.4068 47.5067 57.7299 45.3272 58.6327C43.1477 59.5354 40.8117 60.0001 38.4526 60.0001C37.7623 60.0001 37.2027 59.4404 37.2027 58.7501C37.2027 53.9859 39.0953 49.4168 42.4643 46.048C45.8332 42.6792 50.4024 40.7867 55.1668 40.7867ZM53.8616 43.3418C53.7275 44.9252 53.3498 46.4813 52.7397 47.9542C51.9625 49.8303 50.8235 51.535 49.3875 52.9709C47.9515 54.4068 46.2467 55.5459 44.3705 56.323C42.8975 56.9331 41.3414 57.3108 39.7578 57.4449C40.0645 53.8219 41.6411 50.4065 44.232 47.8158C46.8228 45.225 50.2384 43.6485 53.8616 43.3418Z" fill="#14433D"/>
</svg>
