<svg width="60" height="60" viewBox="0 0 60 60" fill="none" xmlns="http://www.w3.org/2000/svg">
<path fill-rule="evenodd" clip-rule="evenodd" d="M49.0793 50.4935C44.0791 55.1508 37.3723 58 30 58C14.536 58 2 45.464 2 30C2 22.6277 4.84917 15.9209 9.50646 10.9207L49.0793 50.4935ZM50.4935 49.0793L10.9207 9.50646C15.9209 4.84917 22.6277 2 30 2C45.464 2 58 14.536 58 30C58 37.3723 55.1508 44.0791 50.4935 49.0793ZM60 30C60 46.5685 46.5685 60 30 60C13.4315 60 0 46.5685 0 30C0 13.4315 13.4315 0 30 0C46.5685 0 60 13.4315 60 30Z" fill="#14433D"/>
<path d="M21.7432 29.8716C21.7432 29.5584 21.7258 29.2627 21.6736 28.967H14.8716V30.7936H19.6034C19.1859 33.1421 17.2375 34.9165 14.889 34.9165C12.2447 34.9165 10.105 32.655 10.105 29.8716C10.105 27.0882 12.2447 24.8266 14.889 24.8266C16.2633 24.8266 17.481 25.4355 18.3509 26.3923L19.7426 25.018C18.49 23.7654 16.7678 23 14.8716 23C11.0792 23 8 26.0792 8 29.8716C8 33.664 11.0792 36.7432 14.8716 36.7432C18.664 36.7432 21.7432 33.664 21.7432 29.8716Z" fill="#14433D"/>
<path d="M36.1761 23.3479H34.1233L30.0003 29.715L25.9122 23.3479H23.8246V36.3952H25.9122V27.2273L29.1479 32.2723H30.8528L34.0885 27.2273V36.3952H36.1761V23.3479Z" fill="#14433D"/>
<path d="M52 29.8716C52 26.0792 48.9208 23 45.1284 23C41.336 23 38.2568 26.0792 38.2568 29.8716C38.2568 33.664 41.336 36.7432 45.1284 36.7432C48.9208 36.7432 52 33.664 52 29.8716ZM49.9298 29.8716C49.9298 32.655 47.7901 34.9165 45.1458 34.9165C42.5016 34.9165 40.3618 32.655 40.3618 29.8716C40.3618 27.0882 42.5016 24.8266 45.1458 24.8266C47.7901 24.8266 49.9298 27.0882 49.9298 29.8716Z" fill="#14433D"/>
</svg>
