<svg width="60" height="60" viewBox="0 0 60 60" fill="none" xmlns="http://www.w3.org/2000/svg">
<path fill-rule="evenodd" clip-rule="evenodd" d="M28.4055 2.5258C28.8031 2.12824 29.3423 1.9049 29.9045 1.9049C30.4667 1.9049 31.0059 2.12825 31.4035 2.5258C31.801 2.92335 32.0244 3.46255 32.0244 4.02478V6.14467H27.7846V4.02478C27.7846 3.46256 28.008 2.92336 28.4055 2.5258ZM29.9045 0C28.8371 0 27.8133 0.424043 27.0586 1.17883C26.3038 1.93363 25.8797 2.95734 25.8797 4.02478V6.66736L21.9147 6.66736C20.8682 6.66821 19.8427 6.96105 18.9536 7.51296C18.0649 8.06461 17.3477 8.85319 16.8825 9.79006L16.8819 9.79138L15.1032 13.3461C15.0022 13.548 14.9796 13.7688 15.024 13.9736C15.0083 14.0422 15 14.1137 15 14.1871V52.8923V52.894C14.9997 53.0378 15.0322 53.1838 15.1009 53.3212L16.8795 56.8759L16.8803 56.8774C17.3454 57.8142 18.0626 58.6027 18.9512 59.1543C19.8404 59.7062 20.8666 59.9991 21.9131 59.9999H37.8957C38.9422 59.9991 39.9677 59.7062 40.8568 59.1543C41.7455 58.6027 42.4627 57.8141 42.9278 56.8772L42.9285 56.8759L44.7071 53.3212C44.78 53.1755 44.8121 53.0201 44.8076 52.8679V14.1871C44.8076 14.1178 44.8002 14.0502 44.7861 13.985C44.8339 13.777 44.8125 13.5518 44.7095 13.3461L42.9309 9.79138L42.9301 9.7899C42.465 8.8531 41.7478 8.06458 40.8592 7.51296C39.97 6.96105 38.9438 6.66821 37.8973 6.66736L33.9293 6.66736V4.02478C33.9293 2.95735 33.5053 1.93363 32.7505 1.17883C31.9957 0.424041 30.9719 0 29.9045 0ZM41.2244 10.638L42.5237 13.2347H17.289L18.5869 10.6409L18.5883 10.638C18.8959 10.0181 19.3703 9.49635 19.9582 9.13141C20.5461 8.76646 21.2242 8.57282 21.9162 8.57226L37.8965 8.57226C38.5885 8.57282 39.2666 8.76646 39.8545 9.13141C40.4425 9.49635 40.9169 10.0181 41.2244 10.638ZM42.3151 53.8448H33.2818C33.2368 53.8479 33.1918 53.8479 33.1471 53.8448H17.4929L18.586 56.0293C18.8935 56.6491 19.3679 57.1709 19.9559 57.5359C20.5438 57.9008 21.2219 58.0944 21.9139 58.095H37.8942C38.5862 58.0944 39.2643 57.9008 39.8522 57.5359C40.4401 57.1709 40.9145 56.6492 41.2221 56.0293L41.2235 56.0264L42.3151 53.8448ZM42.9027 51.9399H33.7497C31.4628 48.0127 30.6998 43.0608 30.5386 38.9526C30.4555 36.8338 30.5335 34.9709 30.6322 33.6389C30.6816 32.9734 30.736 32.4419 30.7777 32.0788C30.7986 31.8973 30.8163 31.758 30.8286 31.6653C30.8348 31.6189 30.8396 31.5842 30.8428 31.5617L30.8463 31.5371L30.8472 31.5309C30.9245 31.0107 30.5657 30.5263 30.0455 30.4488C29.5252 30.3712 29.0406 30.7302 28.9631 31.2504L29.8988 31.3899C28.9631 31.2504 28.9629 31.2516 28.9628 31.2519L28.9624 31.2546L28.9611 31.2636L28.9566 31.2956C28.9527 31.3231 28.9472 31.363 28.9403 31.4146C28.9266 31.5178 28.9075 31.6681 28.8853 31.8611C28.8409 32.2471 28.784 32.8044 28.7326 33.4981C28.6298 34.8843 28.5487 36.821 28.6352 39.0272C28.7887 42.9397 29.4725 47.8018 31.5812 51.9399H16.9049V15.1396H42.9027V51.9399ZM30.5788 18.4385C30.4002 18.2598 30.1579 18.1594 29.9053 18.1594C29.6526 18.1594 29.4103 18.2597 29.2317 18.4384C23.3345 24.3355 20.8457 33.5232 25.0982 40.5903L25.1103 40.61C25.4861 41.2014 25.9347 41.7434 26.4454 42.2232C26.8288 42.5833 27.4316 42.5645 27.7917 42.1811C28.1519 41.7977 28.133 41.1949 27.7496 40.8348C27.3578 40.4667 27.0134 40.0513 26.7243 39.5981C23.2196 33.7615 24.9367 25.9563 29.9048 20.492C34.663 25.7351 36.3013 33.0766 33.4141 38.993C33.0143 39.7607 32.5615 40.4997 32.0592 41.2046C31.7539 41.6329 31.8537 42.2277 32.282 42.533C32.7104 42.8383 33.3051 42.7385 33.6104 42.3101C34.1665 41.5298 34.6675 40.7115 35.1096 39.8614L35.1202 39.8404C38.5806 32.7644 36.2958 24.1582 30.5788 18.4385Z" fill="#14433D"/>
</svg>
